<svg xmlns="http://www.w3.org/2000/svg" viewBox="0 0 1440 320"><path fill="#111850" fill-opacity="1" d="M0,192L7.1,202.7C14.1,213,28,235,42,245.3C56.5,256,71,256,85,218.7C98.8,181,113,107,127,74.7C141.2,43,155,53,169,58.7C183.5,64,198,64,212,64C225.9,64,240,64,254,85.3C268.2,107,282,149,296,186.7C310.6,224,325,256,339,240C352.9,224,367,160,381,144C395.3,128,409,160,424,165.3C437.6,171,452,149,466,149.3C480,149,494,171,508,181.3C522.4,192,536,192,551,186.7C564.7,181,579,171,593,144C607.1,117,621,75,635,64C649.4,53,664,75,678,90.7C691.8,107,706,117,720,144C734.1,171,748,213,762,234.7C776.5,256,791,256,805,229.3C818.8,203,833,149,847,122.7C861.2,96,875,96,889,112C903.5,128,918,160,932,170.7C945.9,181,960,171,974,144C988.2,117,1002,75,1016,58.7C1030.6,43,1045,53,1059,85.3C1072.9,117,1087,171,1101,197.3C1115.3,224,1129,224,1144,234.7C1157.6,245,1172,267,1186,234.7C1200,203,1214,117,1228,117.3C1242.4,117,1256,203,1271,240C1284.7,277,1299,267,1313,256C1327.1,245,1341,235,1355,229.3C1369.4,224,1384,224,1398,192C1411.8,160,1426,96,1433,64L1440,32L1440,320L1432.9,320C1425.9,320,1412,320,1398,320C1383.5,320,1369,320,1355,320C1341.2,320,1327,320,1313,320C1298.8,320,1285,320,1271,320C1256.5,320,1242,320,1228,320C1214.1,320,1200,320,1186,320C1171.8,320,1158,320,1144,320C1129.4,320,1115,320,1101,320C1087.1,320,1073,320,1059,320C1044.7,320,1031,320,1016,320C1002.4,320,988,320,974,320C960,320,946,320,932,320C917.6,320,904,320,889,320C875.3,320,861,320,847,320C832.9,320,819,320,805,320C790.6,320,776,320,762,320C748.2,320,734,320,720,320C705.9,320,692,320,678,320C663.5,320,649,320,635,320C621.2,320,607,320,593,320C578.8,320,565,320,551,320C536.5,320,522,320,508,320C494.1,320,480,320,466,320C451.8,320,438,320,424,320C409.4,320,395,320,381,320C367.1,320,353,320,339,320C324.7,320,311,320,296,320C282.4,320,268,320,254,320C240,320,226,320,212,320C197.6,320,184,320,169,320C155.3,320,141,320,127,320C112.9,320,99,320,85,320C70.6,320,56,320,42,320C28.2,320,14,320,7,320L0,320Z"></path></svg>