<svg xmlns="http://www.w3.org/2000/svg" version="1.1" xmlns:xlink="http://www.w3.org/1999/xlink" xmlns:svgjs="http://svgjs.dev/svgjs" width="1920" height="1080" preserveAspectRatio="none" viewBox="0 0 1920 1080">
    <g mask="url(&quot;#SvgjsMask1060&quot;)" fill="none">
        <rect width="1920" height="1080" x="0" y="0" fill="rgba(42, 53, 138, 1)"></rect>
        <path d="M41.73 192.44L106.68 229.94L106.68 304.94L41.73 342.44L-23.22 304.94L-23.22 229.94zM106.68 529.94L171.64 567.44L171.64 642.44L106.68 679.94L41.73 642.44L41.73 567.44zM106.68 979.94L171.64 1017.44L171.64 1092.44L106.68 1129.94L41.73 1092.44L41.73 1017.44zM41.73 1092.44L106.68 1129.94L106.68 1204.94L41.73 1242.44L-23.22 1204.94L-23.22 1129.94zM236.59 79.94L301.55 117.44L301.55 192.44L236.59 229.94L171.64 192.44L171.64 117.44zM236.59 304.94L301.55 342.44L301.55 417.44L236.59 454.94L171.64 417.44L171.64 342.44zM236.59 529.94L301.55 567.44L301.55 642.44L236.59 679.94L171.64 642.44L171.64 567.44zM236.59 979.94L301.55 1017.44L301.55 1092.44L236.59 1129.94L171.64 1092.44L171.64 1017.44zM171.64 1092.44L236.59 1129.94L236.59 1204.94L171.64 1242.44L106.68 1204.94L106.68 1129.94zM301.55 -32.56L366.5 4.94L366.5 79.94L301.55 117.44L236.59 79.94L236.59 4.94zM366.5 79.94L431.45 117.44L431.45 192.44L366.5 229.94L301.55 192.44L301.55 117.44zM366.5 304.94L431.45 342.44L431.45 417.44L366.5 454.94L301.55 417.44L301.55 342.44zM301.55 867.44L366.5 904.94L366.5 979.94L301.55 1017.44L236.59 979.94L236.59 904.94zM366.5 979.94L431.45 1017.44L431.45 1092.44L366.5 1129.94L301.55 1092.44L301.55 1017.44zM301.55 1092.44L366.5 1129.94L366.5 1204.94L301.55 1242.44L236.59 1204.94L236.59 1129.94zM431.45 -32.56L496.41 4.94L496.41 79.94L431.45 117.44L366.5 79.94L366.5 4.94zM496.41 754.94L561.36 792.44L561.36 867.44L496.41 904.94L431.45 867.44L431.45 792.44zM496.41 979.94L561.36 1017.44L561.36 1092.44L496.41 1129.94L431.45 1092.44L431.45 1017.44zM626.31 79.94L691.27 117.44L691.27 192.44L626.31 229.94L561.36 192.44L561.36 117.44zM626.31 304.94L691.27 342.44L691.27 417.44L626.31 454.94L561.36 417.44L561.36 342.44zM561.36 417.44L626.31 454.94L626.31 529.94L561.36 567.44L496.41 529.94L496.41 454.94zM626.31 529.94L691.27 567.44L691.27 642.44L626.31 679.94L561.36 642.44L561.36 567.44zM626.31 754.94L691.27 792.44L691.27 867.44L626.31 904.94L561.36 867.44L561.36 792.44zM561.36 867.44L626.31 904.94L626.31 979.94L561.36 1017.44L496.41 979.94L496.41 904.94zM756.22 79.94L821.18 117.44L821.18 192.44L756.22 229.94L691.27 192.44L691.27 117.44zM756.22 529.94L821.18 567.44L821.18 642.44L756.22 679.94L691.27 642.44L691.27 567.44zM756.22 754.94L821.18 792.44L821.18 867.44L756.22 904.94L691.27 867.44L691.27 792.44zM691.27 867.44L756.22 904.94L756.22 979.94L691.27 1017.44L626.31 979.94L626.31 904.94zM691.27 1092.44L756.22 1129.94L756.22 1204.94L691.27 1242.44L626.31 1204.94L626.31 1129.94zM821.17 867.44L886.13 904.94L886.13 979.94L821.17 1017.44L756.22 979.94L756.22 904.94zM951.08 -32.56L1016.04 4.94L1016.04 79.94L951.08 117.44L886.13 79.94L886.13 4.94zM1016.04 79.94L1080.99 117.44L1080.99 192.44L1016.04 229.94L951.08 192.44L951.08 117.44zM1145.94 529.94L1210.9 567.44L1210.9 642.44L1145.94 679.94L1080.99 642.44L1080.99 567.44zM1145.94 754.94L1210.9 792.44L1210.9 867.44L1145.94 904.94L1080.99 867.44L1080.99 792.44zM1080.99 867.44L1145.94 904.94L1145.94 979.94L1080.99 1017.44L1016.04 979.94L1016.04 904.94zM1145.94 979.94L1210.9 1017.44L1210.9 1092.44L1145.94 1129.94L1080.99 1092.44L1080.99 1017.44zM1210.9 -32.56L1275.85 4.94L1275.85 79.94L1210.9 117.44L1145.94 79.94L1145.94 4.94zM1275.85 79.94L1340.8 117.44L1340.8 192.44L1275.85 229.94L1210.9 192.44L1210.9 117.44zM1275.85 529.94L1340.8 567.44L1340.8 642.44L1275.85 679.94L1210.9 642.44L1210.9 567.44zM1210.9 867.44L1275.85 904.94L1275.85 979.94L1210.9 1017.44L1145.94 979.94L1145.94 904.94zM1210.9 1092.44L1275.85 1129.94L1275.85 1204.94L1210.9 1242.44L1145.94 1204.94L1145.94 1129.94zM1340.81 -32.56L1405.76 4.94L1405.76 79.94L1340.81 117.44L1275.85 79.94L1275.85 4.94zM1405.76 79.94L1470.71 117.44L1470.71 192.44L1405.76 229.94L1340.81 192.44L1340.81 117.44zM1405.76 979.94L1470.71 1017.44L1470.71 1092.44L1405.76 1129.94L1340.81 1092.44L1340.81 1017.44zM1535.67 79.94L1600.62 117.44L1600.62 192.44L1535.67 229.94L1470.71 192.44L1470.71 117.44zM1470.71 192.44L1535.67 229.94L1535.67 304.94L1470.71 342.44L1405.76 304.94L1405.76 229.94zM1535.67 304.94L1600.62 342.44L1600.62 417.44L1535.67 454.94L1470.71 417.44L1470.71 342.44zM1470.71 642.44L1535.67 679.94L1535.67 754.94L1470.71 792.44L1405.76 754.94L1405.76 679.94zM1470.71 867.44L1535.67 904.94L1535.67 979.94L1470.71 1017.44L1405.76 979.94L1405.76 904.94zM1600.62 -32.56L1665.57 4.94L1665.57 79.94L1600.62 117.44L1535.67 79.94L1535.67 4.94zM1600.62 642.44L1665.57 679.94L1665.57 754.94L1600.62 792.44L1535.67 754.94L1535.67 679.94zM1665.57 754.94L1730.53 792.44L1730.53 867.44L1665.57 904.94L1600.62 867.44L1600.62 792.44zM1730.53 -32.56L1795.48 4.94L1795.48 79.94L1730.53 117.44L1665.57 79.94L1665.57 4.94zM1795.48 304.94L1860.43 342.44L1860.43 417.44L1795.48 454.94L1730.53 417.44L1730.53 342.44zM1730.53 417.44L1795.48 454.94L1795.48 529.94L1730.53 567.44L1665.57 529.94L1665.57 454.94zM1730.53 867.44L1795.48 904.94L1795.48 979.94L1730.53 1017.44L1665.57 979.94L1665.57 904.94zM1795.48 979.94L1860.43 1017.44L1860.43 1092.44L1795.48 1129.94L1730.53 1092.44L1730.53 1017.44zM1730.53 1092.44L1795.48 1129.94L1795.48 1204.94L1730.53 1242.44L1665.57 1204.94L1665.57 1129.94zM1860.43 -32.56L1925.39 4.94L1925.39 79.94L1860.43 117.44L1795.48 79.94L1795.48 4.94zM1860.43 192.44L1925.39 229.94L1925.39 304.94L1860.43 342.44L1795.48 304.94L1795.48 229.94zM1925.39 304.94L1990.34 342.44L1990.34 417.44L1925.39 454.94L1860.43 417.44L1860.43 342.44zM1860.43 417.44L1925.39 454.94L1925.39 529.94L1860.43 567.44L1795.48 529.94L1795.48 454.94zM1860.43 867.44L1925.39 904.94L1925.39 979.94L1860.43 1017.44L1795.48 979.94L1795.48 904.94zM1925.39 979.94L1990.34 1017.44L1990.34 1092.44L1925.39 1129.94L1860.43 1092.44L1860.43 1017.44z" stroke="#03305d" stroke-width="2"></path>
        <path d="M34.23 192.44 a7.5 7.5 0 1 0 15 0 a7.5 7.5 0 1 0 -15 0zM99.18 229.94 a7.5 7.5 0 1 0 15 0 a7.5 7.5 0 1 0 -15 0zM99.18 304.94 a7.5 7.5 0 1 0 15 0 a7.5 7.5 0 1 0 -15 0zM34.23 342.44 a7.5 7.5 0 1 0 15 0 a7.5 7.5 0 1 0 -15 0zM-30.72 304.94 a7.5 7.5 0 1 0 15 0 a7.5 7.5 0 1 0 -15 0zM-30.72 229.94 a7.5 7.5 0 1 0 15 0 a7.5 7.5 0 1 0 -15 0zM99.18 529.94 a7.5 7.5 0 1 0 15 0 a7.5 7.5 0 1 0 -15 0zM164.14 567.44 a7.5 7.5 0 1 0 15 0 a7.5 7.5 0 1 0 -15 0zM164.14 642.44 a7.5 7.5 0 1 0 15 0 a7.5 7.5 0 1 0 -15 0zM99.18 679.94 a7.5 7.5 0 1 0 15 0 a7.5 7.5 0 1 0 -15 0zM34.23 642.44 a7.5 7.5 0 1 0 15 0 a7.5 7.5 0 1 0 -15 0zM34.23 567.44 a7.5 7.5 0 1 0 15 0 a7.5 7.5 0 1 0 -15 0zM99.18 979.94 a7.5 7.5 0 1 0 15 0 a7.5 7.5 0 1 0 -15 0zM164.14 1017.44 a7.5 7.5 0 1 0 15 0 a7.5 7.5 0 1 0 -15 0zM164.14 1092.44 a7.5 7.5 0 1 0 15 0 a7.5 7.5 0 1 0 -15 0zM99.18 1129.94 a7.5 7.5 0 1 0 15 0 a7.5 7.5 0 1 0 -15 0zM34.23 1092.44 a7.5 7.5 0 1 0 15 0 a7.5 7.5 0 1 0 -15 0zM34.23 1017.44 a7.5 7.5 0 1 0 15 0 a7.5 7.5 0 1 0 -15 0zM99.18 1204.94 a7.5 7.5 0 1 0 15 0 a7.5 7.5 0 1 0 -15 0zM34.23 1242.44 a7.5 7.5 0 1 0 15 0 a7.5 7.5 0 1 0 -15 0zM-30.72 1204.94 a7.5 7.5 0 1 0 15 0 a7.5 7.5 0 1 0 -15 0zM-30.72 1129.94 a7.5 7.5 0 1 0 15 0 a7.5 7.5 0 1 0 -15 0zM229.09 79.94 a7.5 7.5 0 1 0 15 0 a7.5 7.5 0 1 0 -15 0zM294.05 117.44 a7.5 7.5 0 1 0 15 0 a7.5 7.5 0 1 0 -15 0zM294.05 192.44 a7.5 7.5 0 1 0 15 0 a7.5 7.5 0 1 0 -15 0zM229.09 229.94 a7.5 7.5 0 1 0 15 0 a7.5 7.5 0 1 0 -15 0zM164.14 192.44 a7.5 7.5 0 1 0 15 0 a7.5 7.5 0 1 0 -15 0zM164.14 117.44 a7.5 7.5 0 1 0 15 0 a7.5 7.5 0 1 0 -15 0zM229.09 304.94 a7.5 7.5 0 1 0 15 0 a7.5 7.5 0 1 0 -15 0zM294.05 342.44 a7.5 7.5 0 1 0 15 0 a7.5 7.5 0 1 0 -15 0zM294.05 417.44 a7.5 7.5 0 1 0 15 0 a7.5 7.5 0 1 0 -15 0zM229.09 454.94 a7.5 7.5 0 1 0 15 0 a7.5 7.5 0 1 0 -15 0zM164.14 417.44 a7.5 7.5 0 1 0 15 0 a7.5 7.5 0 1 0 -15 0zM164.14 342.44 a7.5 7.5 0 1 0 15 0 a7.5 7.5 0 1 0 -15 0zM229.09 529.94 a7.5 7.5 0 1 0 15 0 a7.5 7.5 0 1 0 -15 0zM294.05 567.44 a7.5 7.5 0 1 0 15 0 a7.5 7.5 0 1 0 -15 0zM294.05 642.44 a7.5 7.5 0 1 0 15 0 a7.5 7.5 0 1 0 -15 0zM229.09 679.94 a7.5 7.5 0 1 0 15 0 a7.5 7.5 0 1 0 -15 0zM229.09 979.94 a7.5 7.5 0 1 0 15 0 a7.5 7.5 0 1 0 -15 0zM294.05 1017.44 a7.5 7.5 0 1 0 15 0 a7.5 7.5 0 1 0 -15 0zM294.05 1092.44 a7.5 7.5 0 1 0 15 0 a7.5 7.5 0 1 0 -15 0zM229.09 1129.94 a7.5 7.5 0 1 0 15 0 a7.5 7.5 0 1 0 -15 0zM229.09 1204.94 a7.5 7.5 0 1 0 15 0 a7.5 7.5 0 1 0 -15 0zM164.14 1242.44 a7.5 7.5 0 1 0 15 0 a7.5 7.5 0 1 0 -15 0zM294.05 -32.56 a7.5 7.5 0 1 0 15 0 a7.5 7.5 0 1 0 -15 0zM359 4.94 a7.5 7.5 0 1 0 15 0 a7.5 7.5 0 1 0 -15 0zM359 79.94 a7.5 7.5 0 1 0 15 0 a7.5 7.5 0 1 0 -15 0zM229.09 4.94 a7.5 7.5 0 1 0 15 0 a7.5 7.5 0 1 0 -15 0zM423.95 117.44 a7.5 7.5 0 1 0 15 0 a7.5 7.5 0 1 0 -15 0zM423.95 192.44 a7.5 7.5 0 1 0 15 0 a7.5 7.5 0 1 0 -15 0zM359 229.94 a7.5 7.5 0 1 0 15 0 a7.5 7.5 0 1 0 -15 0zM359 304.94 a7.5 7.5 0 1 0 15 0 a7.5 7.5 0 1 0 -15 0zM423.95 342.44 a7.5 7.5 0 1 0 15 0 a7.5 7.5 0 1 0 -15 0zM423.95 417.44 a7.5 7.5 0 1 0 15 0 a7.5 7.5 0 1 0 -15 0zM359 454.94 a7.5 7.5 0 1 0 15 0 a7.5 7.5 0 1 0 -15 0zM294.05 867.44 a7.5 7.5 0 1 0 15 0 a7.5 7.5 0 1 0 -15 0zM359 904.94 a7.5 7.5 0 1 0 15 0 a7.5 7.5 0 1 0 -15 0zM359 979.94 a7.5 7.5 0 1 0 15 0 a7.5 7.5 0 1 0 -15 0zM229.09 904.94 a7.5 7.5 0 1 0 15 0 a7.5 7.5 0 1 0 -15 0zM423.95 1017.44 a7.5 7.5 0 1 0 15 0 a7.5 7.5 0 1 0 -15 0zM423.95 1092.44 a7.5 7.5 0 1 0 15 0 a7.5 7.5 0 1 0 -15 0zM359 1129.94 a7.5 7.5 0 1 0 15 0 a7.5 7.5 0 1 0 -15 0zM359 1204.94 a7.5 7.5 0 1 0 15 0 a7.5 7.5 0 1 0 -15 0zM294.05 1242.44 a7.5 7.5 0 1 0 15 0 a7.5 7.5 0 1 0 -15 0zM423.95 -32.56 a7.5 7.5 0 1 0 15 0 a7.5 7.5 0 1 0 -15 0zM488.91 4.94 a7.5 7.5 0 1 0 15 0 a7.5 7.5 0 1 0 -15 0zM488.91 79.94 a7.5 7.5 0 1 0 15 0 a7.5 7.5 0 1 0 -15 0zM488.91 754.94 a7.5 7.5 0 1 0 15 0 a7.5 7.5 0 1 0 -15 0zM553.86 792.44 a7.5 7.5 0 1 0 15 0 a7.5 7.5 0 1 0 -15 0zM553.86 867.44 a7.5 7.5 0 1 0 15 0 a7.5 7.5 0 1 0 -15 0zM488.91 904.94 a7.5 7.5 0 1 0 15 0 a7.5 7.5 0 1 0 -15 0zM423.95 867.44 a7.5 7.5 0 1 0 15 0 a7.5 7.5 0 1 0 -15 0zM423.95 792.44 a7.5 7.5 0 1 0 15 0 a7.5 7.5 0 1 0 -15 0zM488.91 979.94 a7.5 7.5 0 1 0 15 0 a7.5 7.5 0 1 0 -15 0zM553.86 1017.44 a7.5 7.5 0 1 0 15 0 a7.5 7.5 0 1 0 -15 0zM553.86 1092.44 a7.5 7.5 0 1 0 15 0 a7.5 7.5 0 1 0 -15 0zM488.91 1129.94 a7.5 7.5 0 1 0 15 0 a7.5 7.5 0 1 0 -15 0zM618.81 79.94 a7.5 7.5 0 1 0 15 0 a7.5 7.5 0 1 0 -15 0zM683.77 117.44 a7.5 7.5 0 1 0 15 0 a7.5 7.5 0 1 0 -15 0zM683.77 192.44 a7.5 7.5 0 1 0 15 0 a7.5 7.5 0 1 0 -15 0zM618.81 229.94 a7.5 7.5 0 1 0 15 0 a7.5 7.5 0 1 0 -15 0zM553.86 192.44 a7.5 7.5 0 1 0 15 0 a7.5 7.5 0 1 0 -15 0zM553.86 117.44 a7.5 7.5 0 1 0 15 0 a7.5 7.5 0 1 0 -15 0zM618.81 304.94 a7.5 7.5 0 1 0 15 0 a7.5 7.5 0 1 0 -15 0zM683.77 342.44 a7.5 7.5 0 1 0 15 0 a7.5 7.5 0 1 0 -15 0zM683.77 417.44 a7.5 7.5 0 1 0 15 0 a7.5 7.5 0 1 0 -15 0zM618.81 454.94 a7.5 7.5 0 1 0 15 0 a7.5 7.5 0 1 0 -15 0zM553.86 417.44 a7.5 7.5 0 1 0 15 0 a7.5 7.5 0 1 0 -15 0zM553.86 342.44 a7.5 7.5 0 1 0 15 0 a7.5 7.5 0 1 0 -15 0zM618.81 529.94 a7.5 7.5 0 1 0 15 0 a7.5 7.5 0 1 0 -15 0zM553.86 567.44 a7.5 7.5 0 1 0 15 0 a7.5 7.5 0 1 0 -15 0zM488.91 529.94 a7.5 7.5 0 1 0 15 0 a7.5 7.5 0 1 0 -15 0zM488.91 454.94 a7.5 7.5 0 1 0 15 0 a7.5 7.5 0 1 0 -15 0zM683.77 567.44 a7.5 7.5 0 1 0 15 0 a7.5 7.5 0 1 0 -15 0zM683.77 642.44 a7.5 7.5 0 1 0 15 0 a7.5 7.5 0 1 0 -15 0zM618.81 679.94 a7.5 7.5 0 1 0 15 0 a7.5 7.5 0 1 0 -15 0zM553.86 642.44 a7.5 7.5 0 1 0 15 0 a7.5 7.5 0 1 0 -15 0zM618.81 754.94 a7.5 7.5 0 1 0 15 0 a7.5 7.5 0 1 0 -15 0zM683.77 792.44 a7.5 7.5 0 1 0 15 0 a7.5 7.5 0 1 0 -15 0zM683.77 867.44 a7.5 7.5 0 1 0 15 0 a7.5 7.5 0 1 0 -15 0zM618.81 904.94 a7.5 7.5 0 1 0 15 0 a7.5 7.5 0 1 0 -15 0zM618.81 979.94 a7.5 7.5 0 1 0 15 0 a7.5 7.5 0 1 0 -15 0zM748.72 79.94 a7.5 7.5 0 1 0 15 0 a7.5 7.5 0 1 0 -15 0zM813.68 117.44 a7.5 7.5 0 1 0 15 0 a7.5 7.5 0 1 0 -15 0zM813.68 192.44 a7.5 7.5 0 1 0 15 0 a7.5 7.5 0 1 0 -15 0zM748.72 229.94 a7.5 7.5 0 1 0 15 0 a7.5 7.5 0 1 0 -15 0zM748.72 529.94 a7.5 7.5 0 1 0 15 0 a7.5 7.5 0 1 0 -15 0zM813.68 567.44 a7.5 7.5 0 1 0 15 0 a7.5 7.5 0 1 0 -15 0zM813.68 642.44 a7.5 7.5 0 1 0 15 0 a7.5 7.5 0 1 0 -15 0zM748.72 679.94 a7.5 7.5 0 1 0 15 0 a7.5 7.5 0 1 0 -15 0zM748.72 754.94 a7.5 7.5 0 1 0 15 0 a7.5 7.5 0 1 0 -15 0zM813.68 792.44 a7.5 7.5 0 1 0 15 0 a7.5 7.5 0 1 0 -15 0zM813.68 867.44 a7.5 7.5 0 1 0 15 0 a7.5 7.5 0 1 0 -15 0zM748.72 904.94 a7.5 7.5 0 1 0 15 0 a7.5 7.5 0 1 0 -15 0zM748.72 979.94 a7.5 7.5 0 1 0 15 0 a7.5 7.5 0 1 0 -15 0zM683.77 1017.44 a7.5 7.5 0 1 0 15 0 a7.5 7.5 0 1 0 -15 0zM683.77 1092.44 a7.5 7.5 0 1 0 15 0 a7.5 7.5 0 1 0 -15 0zM748.72 1129.94 a7.5 7.5 0 1 0 15 0 a7.5 7.5 0 1 0 -15 0zM748.72 1204.94 a7.5 7.5 0 1 0 15 0 a7.5 7.5 0 1 0 -15 0zM683.77 1242.44 a7.5 7.5 0 1 0 15 0 a7.5 7.5 0 1 0 -15 0zM618.81 1204.94 a7.5 7.5 0 1 0 15 0 a7.5 7.5 0 1 0 -15 0zM618.81 1129.94 a7.5 7.5 0 1 0 15 0 a7.5 7.5 0 1 0 -15 0zM813.67 867.44 a7.5 7.5 0 1 0 15 0 a7.5 7.5 0 1 0 -15 0zM878.63 904.94 a7.5 7.5 0 1 0 15 0 a7.5 7.5 0 1 0 -15 0zM878.63 979.94 a7.5 7.5 0 1 0 15 0 a7.5 7.5 0 1 0 -15 0zM813.67 1017.44 a7.5 7.5 0 1 0 15 0 a7.5 7.5 0 1 0 -15 0zM943.58 -32.56 a7.5 7.5 0 1 0 15 0 a7.5 7.5 0 1 0 -15 0zM1008.54 4.94 a7.5 7.5 0 1 0 15 0 a7.5 7.5 0 1 0 -15 0zM1008.54 79.94 a7.5 7.5 0 1 0 15 0 a7.5 7.5 0 1 0 -15 0zM943.58 117.44 a7.5 7.5 0 1 0 15 0 a7.5 7.5 0 1 0 -15 0zM878.63 79.94 a7.5 7.5 0 1 0 15 0 a7.5 7.5 0 1 0 -15 0zM878.63 4.94 a7.5 7.5 0 1 0 15 0 a7.5 7.5 0 1 0 -15 0zM1073.49 117.44 a7.5 7.5 0 1 0 15 0 a7.5 7.5 0 1 0 -15 0zM1073.49 192.44 a7.5 7.5 0 1 0 15 0 a7.5 7.5 0 1 0 -15 0zM1008.54 229.94 a7.5 7.5 0 1 0 15 0 a7.5 7.5 0 1 0 -15 0zM943.58 192.44 a7.5 7.5 0 1 0 15 0 a7.5 7.5 0 1 0 -15 0zM1138.44 529.94 a7.5 7.5 0 1 0 15 0 a7.5 7.5 0 1 0 -15 0zM1203.4 567.44 a7.5 7.5 0 1 0 15 0 a7.5 7.5 0 1 0 -15 0zM1203.4 642.44 a7.5 7.5 0 1 0 15 0 a7.5 7.5 0 1 0 -15 0zM1138.44 679.94 a7.5 7.5 0 1 0 15 0 a7.5 7.5 0 1 0 -15 0zM1073.49 642.44 a7.5 7.5 0 1 0 15 0 a7.5 7.5 0 1 0 -15 0zM1073.49 567.44 a7.5 7.5 0 1 0 15 0 a7.5 7.5 0 1 0 -15 0zM1138.44 754.94 a7.5 7.5 0 1 0 15 0 a7.5 7.5 0 1 0 -15 0zM1203.4 792.44 a7.5 7.5 0 1 0 15 0 a7.5 7.5 0 1 0 -15 0zM1203.4 867.44 a7.5 7.5 0 1 0 15 0 a7.5 7.5 0 1 0 -15 0zM1138.44 904.94 a7.5 7.5 0 1 0 15 0 a7.5 7.5 0 1 0 -15 0zM1073.49 867.44 a7.5 7.5 0 1 0 15 0 a7.5 7.5 0 1 0 -15 0zM1073.49 792.44 a7.5 7.5 0 1 0 15 0 a7.5 7.5 0 1 0 -15 0zM1138.44 979.94 a7.5 7.5 0 1 0 15 0 a7.5 7.5 0 1 0 -15 0zM1073.49 1017.44 a7.5 7.5 0 1 0 15 0 a7.5 7.5 0 1 0 -15 0zM1008.54 979.94 a7.5 7.5 0 1 0 15 0 a7.5 7.5 0 1 0 -15 0zM1008.54 904.94 a7.5 7.5 0 1 0 15 0 a7.5 7.5 0 1 0 -15 0zM1203.4 1017.44 a7.5 7.5 0 1 0 15 0 a7.5 7.5 0 1 0 -15 0zM1203.4 1092.44 a7.5 7.5 0 1 0 15 0 a7.5 7.5 0 1 0 -15 0zM1138.44 1129.94 a7.5 7.5 0 1 0 15 0 a7.5 7.5 0 1 0 -15 0zM1073.49 1092.44 a7.5 7.5 0 1 0 15 0 a7.5 7.5 0 1 0 -15 0zM1203.4 -32.56 a7.5 7.5 0 1 0 15 0 a7.5 7.5 0 1 0 -15 0zM1268.35 4.94 a7.5 7.5 0 1 0 15 0 a7.5 7.5 0 1 0 -15 0zM1268.35 79.94 a7.5 7.5 0 1 0 15 0 a7.5 7.5 0 1 0 -15 0zM1203.4 117.44 a7.5 7.5 0 1 0 15 0 a7.5 7.5 0 1 0 -15 0zM1138.44 79.94 a7.5 7.5 0 1 0 15 0 a7.5 7.5 0 1 0 -15 0zM1138.44 4.94 a7.5 7.5 0 1 0 15 0 a7.5 7.5 0 1 0 -15 0zM1333.3 117.44 a7.5 7.5 0 1 0 15 0 a7.5 7.5 0 1 0 -15 0zM1333.3 192.44 a7.5 7.5 0 1 0 15 0 a7.5 7.5 0 1 0 -15 0zM1268.35 229.94 a7.5 7.5 0 1 0 15 0 a7.5 7.5 0 1 0 -15 0zM1203.4 192.44 a7.5 7.5 0 1 0 15 0 a7.5 7.5 0 1 0 -15 0zM1268.35 529.94 a7.5 7.5 0 1 0 15 0 a7.5 7.5 0 1 0 -15 0zM1333.3 567.44 a7.5 7.5 0 1 0 15 0 a7.5 7.5 0 1 0 -15 0zM1333.3 642.44 a7.5 7.5 0 1 0 15 0 a7.5 7.5 0 1 0 -15 0zM1268.35 679.94 a7.5 7.5 0 1 0 15 0 a7.5 7.5 0 1 0 -15 0zM1268.35 904.94 a7.5 7.5 0 1 0 15 0 a7.5 7.5 0 1 0 -15 0zM1268.35 979.94 a7.5 7.5 0 1 0 15 0 a7.5 7.5 0 1 0 -15 0zM1268.35 1129.94 a7.5 7.5 0 1 0 15 0 a7.5 7.5 0 1 0 -15 0zM1268.35 1204.94 a7.5 7.5 0 1 0 15 0 a7.5 7.5 0 1 0 -15 0zM1203.4 1242.44 a7.5 7.5 0 1 0 15 0 a7.5 7.5 0 1 0 -15 0zM1138.44 1204.94 a7.5 7.5 0 1 0 15 0 a7.5 7.5 0 1 0 -15 0zM1333.31 -32.56 a7.5 7.5 0 1 0 15 0 a7.5 7.5 0 1 0 -15 0zM1398.26 4.94 a7.5 7.5 0 1 0 15 0 a7.5 7.5 0 1 0 -15 0zM1398.26 79.94 a7.5 7.5 0 1 0 15 0 a7.5 7.5 0 1 0 -15 0zM1333.31 117.44 a7.5 7.5 0 1 0 15 0 a7.5 7.5 0 1 0 -15 0zM1463.21 117.44 a7.5 7.5 0 1 0 15 0 a7.5 7.5 0 1 0 -15 0zM1463.21 192.44 a7.5 7.5 0 1 0 15 0 a7.5 7.5 0 1 0 -15 0zM1398.26 229.94 a7.5 7.5 0 1 0 15 0 a7.5 7.5 0 1 0 -15 0zM1333.31 192.44 a7.5 7.5 0 1 0 15 0 a7.5 7.5 0 1 0 -15 0zM1398.26 979.94 a7.5 7.5 0 1 0 15 0 a7.5 7.5 0 1 0 -15 0zM1463.21 1017.44 a7.5 7.5 0 1 0 15 0 a7.5 7.5 0 1 0 -15 0zM1463.21 1092.44 a7.5 7.5 0 1 0 15 0 a7.5 7.5 0 1 0 -15 0zM1398.26 1129.94 a7.5 7.5 0 1 0 15 0 a7.5 7.5 0 1 0 -15 0zM1333.31 1092.44 a7.5 7.5 0 1 0 15 0 a7.5 7.5 0 1 0 -15 0zM1333.31 1017.44 a7.5 7.5 0 1 0 15 0 a7.5 7.5 0 1 0 -15 0zM1528.17 79.94 a7.5 7.5 0 1 0 15 0 a7.5 7.5 0 1 0 -15 0zM1593.12 117.44 a7.5 7.5 0 1 0 15 0 a7.5 7.5 0 1 0 -15 0zM1593.12 192.44 a7.5 7.5 0 1 0 15 0 a7.5 7.5 0 1 0 -15 0zM1528.17 229.94 a7.5 7.5 0 1 0 15 0 a7.5 7.5 0 1 0 -15 0zM1528.17 304.94 a7.5 7.5 0 1 0 15 0 a7.5 7.5 0 1 0 -15 0zM1463.21 342.44 a7.5 7.5 0 1 0 15 0 a7.5 7.5 0 1 0 -15 0zM1398.26 304.94 a7.5 7.5 0 1 0 15 0 a7.5 7.5 0 1 0 -15 0zM1593.12 342.44 a7.5 7.5 0 1 0 15 0 a7.5 7.5 0 1 0 -15 0zM1593.12 417.44 a7.5 7.5 0 1 0 15 0 a7.5 7.5 0 1 0 -15 0zM1528.17 454.94 a7.5 7.5 0 1 0 15 0 a7.5 7.5 0 1 0 -15 0zM1463.21 417.44 a7.5 7.5 0 1 0 15 0 a7.5 7.5 0 1 0 -15 0zM1463.21 642.44 a7.5 7.5 0 1 0 15 0 a7.5 7.5 0 1 0 -15 0zM1528.17 679.94 a7.5 7.5 0 1 0 15 0 a7.5 7.5 0 1 0 -15 0zM1528.17 754.94 a7.5 7.5 0 1 0 15 0 a7.5 7.5 0 1 0 -15 0zM1463.21 792.44 a7.5 7.5 0 1 0 15 0 a7.5 7.5 0 1 0 -15 0zM1398.26 754.94 a7.5 7.5 0 1 0 15 0 a7.5 7.5 0 1 0 -15 0zM1398.26 679.94 a7.5 7.5 0 1 0 15 0 a7.5 7.5 0 1 0 -15 0zM1463.21 867.44 a7.5 7.5 0 1 0 15 0 a7.5 7.5 0 1 0 -15 0zM1528.17 904.94 a7.5 7.5 0 1 0 15 0 a7.5 7.5 0 1 0 -15 0zM1528.17 979.94 a7.5 7.5 0 1 0 15 0 a7.5 7.5 0 1 0 -15 0zM1398.26 904.94 a7.5 7.5 0 1 0 15 0 a7.5 7.5 0 1 0 -15 0zM1593.12 -32.56 a7.5 7.5 0 1 0 15 0 a7.5 7.5 0 1 0 -15 0zM1658.07 4.94 a7.5 7.5 0 1 0 15 0 a7.5 7.5 0 1 0 -15 0zM1658.07 79.94 a7.5 7.5 0 1 0 15 0 a7.5 7.5 0 1 0 -15 0zM1528.17 4.94 a7.5 7.5 0 1 0 15 0 a7.5 7.5 0 1 0 -15 0zM1593.12 642.44 a7.5 7.5 0 1 0 15 0 a7.5 7.5 0 1 0 -15 0zM1658.07 679.94 a7.5 7.5 0 1 0 15 0 a7.5 7.5 0 1 0 -15 0zM1658.07 754.94 a7.5 7.5 0 1 0 15 0 a7.5 7.5 0 1 0 -15 0zM1593.12 792.44 a7.5 7.5 0 1 0 15 0 a7.5 7.5 0 1 0 -15 0zM1723.03 792.44 a7.5 7.5 0 1 0 15 0 a7.5 7.5 0 1 0 -15 0zM1723.03 867.44 a7.5 7.5 0 1 0 15 0 a7.5 7.5 0 1 0 -15 0zM1658.07 904.94 a7.5 7.5 0 1 0 15 0 a7.5 7.5 0 1 0 -15 0zM1593.12 867.44 a7.5 7.5 0 1 0 15 0 a7.5 7.5 0 1 0 -15 0zM1723.03 -32.56 a7.5 7.5 0 1 0 15 0 a7.5 7.5 0 1 0 -15 0zM1787.98 4.94 a7.5 7.5 0 1 0 15 0 a7.5 7.5 0 1 0 -15 0zM1787.98 79.94 a7.5 7.5 0 1 0 15 0 a7.5 7.5 0 1 0 -15 0zM1723.03 117.44 a7.5 7.5 0 1 0 15 0 a7.5 7.5 0 1 0 -15 0zM1787.98 304.94 a7.5 7.5 0 1 0 15 0 a7.5 7.5 0 1 0 -15 0zM1852.93 342.44 a7.5 7.5 0 1 0 15 0 a7.5 7.5 0 1 0 -15 0zM1852.93 417.44 a7.5 7.5 0 1 0 15 0 a7.5 7.5 0 1 0 -15 0zM1787.98 454.94 a7.5 7.5 0 1 0 15 0 a7.5 7.5 0 1 0 -15 0zM1723.03 417.44 a7.5 7.5 0 1 0 15 0 a7.5 7.5 0 1 0 -15 0zM1723.03 342.44 a7.5 7.5 0 1 0 15 0 a7.5 7.5 0 1 0 -15 0zM1787.98 529.94 a7.5 7.5 0 1 0 15 0 a7.5 7.5 0 1 0 -15 0zM1723.03 567.44 a7.5 7.5 0 1 0 15 0 a7.5 7.5 0 1 0 -15 0zM1658.07 529.94 a7.5 7.5 0 1 0 15 0 a7.5 7.5 0 1 0 -15 0zM1658.07 454.94 a7.5 7.5 0 1 0 15 0 a7.5 7.5 0 1 0 -15 0zM1787.98 904.94 a7.5 7.5 0 1 0 15 0 a7.5 7.5 0 1 0 -15 0zM1787.98 979.94 a7.5 7.5 0 1 0 15 0 a7.5 7.5 0 1 0 -15 0zM1723.03 1017.44 a7.5 7.5 0 1 0 15 0 a7.5 7.5 0 1 0 -15 0zM1658.07 979.94 a7.5 7.5 0 1 0 15 0 a7.5 7.5 0 1 0 -15 0zM1852.93 1017.44 a7.5 7.5 0 1 0 15 0 a7.5 7.5 0 1 0 -15 0zM1852.93 1092.44 a7.5 7.5 0 1 0 15 0 a7.5 7.5 0 1 0 -15 0zM1787.98 1129.94 a7.5 7.5 0 1 0 15 0 a7.5 7.5 0 1 0 -15 0zM1723.03 1092.44 a7.5 7.5 0 1 0 15 0 a7.5 7.5 0 1 0 -15 0zM1787.98 1204.94 a7.5 7.5 0 1 0 15 0 a7.5 7.5 0 1 0 -15 0zM1723.03 1242.44 a7.5 7.5 0 1 0 15 0 a7.5 7.5 0 1 0 -15 0zM1658.07 1204.94 a7.5 7.5 0 1 0 15 0 a7.5 7.5 0 1 0 -15 0zM1658.07 1129.94 a7.5 7.5 0 1 0 15 0 a7.5 7.5 0 1 0 -15 0zM1852.93 -32.56 a7.5 7.5 0 1 0 15 0 a7.5 7.5 0 1 0 -15 0zM1917.89 4.94 a7.5 7.5 0 1 0 15 0 a7.5 7.5 0 1 0 -15 0zM1917.89 79.94 a7.5 7.5 0 1 0 15 0 a7.5 7.5 0 1 0 -15 0zM1852.93 117.44 a7.5 7.5 0 1 0 15 0 a7.5 7.5 0 1 0 -15 0zM1852.93 192.44 a7.5 7.5 0 1 0 15 0 a7.5 7.5 0 1 0 -15 0zM1917.89 229.94 a7.5 7.5 0 1 0 15 0 a7.5 7.5 0 1 0 -15 0zM1917.89 304.94 a7.5 7.5 0 1 0 15 0 a7.5 7.5 0 1 0 -15 0zM1787.98 229.94 a7.5 7.5 0 1 0 15 0 a7.5 7.5 0 1 0 -15 0zM1982.84 342.44 a7.5 7.5 0 1 0 15 0 a7.5 7.5 0 1 0 -15 0zM1982.84 417.44 a7.5 7.5 0 1 0 15 0 a7.5 7.5 0 1 0 -15 0zM1917.89 454.94 a7.5 7.5 0 1 0 15 0 a7.5 7.5 0 1 0 -15 0zM1917.89 529.94 a7.5 7.5 0 1 0 15 0 a7.5 7.5 0 1 0 -15 0zM1852.93 567.44 a7.5 7.5 0 1 0 15 0 a7.5 7.5 0 1 0 -15 0zM1852.93 867.44 a7.5 7.5 0 1 0 15 0 a7.5 7.5 0 1 0 -15 0zM1917.89 904.94 a7.5 7.5 0 1 0 15 0 a7.5 7.5 0 1 0 -15 0zM1917.89 979.94 a7.5 7.5 0 1 0 15 0 a7.5 7.5 0 1 0 -15 0zM1982.84 1017.44 a7.5 7.5 0 1 0 15 0 a7.5 7.5 0 1 0 -15 0zM1982.84 1092.44 a7.5 7.5 0 1 0 15 0 a7.5 7.5 0 1 0 -15 0zM1917.89 1129.94 a7.5 7.5 0 1 0 15 0 a7.5 7.5 0 1 0 -15 0z" fill="#03305d"></path>
        <path d="M67.54 237.06L113.44 263.56L113.44 316.56L67.54 343.06L21.64 316.56L21.64 263.56zM67.54 555.06L113.44 581.56L113.44 634.56L67.54 661.06L21.64 634.56L21.64 581.56zM21.64 793.56L67.54 820.06L67.54 873.06L21.64 899.56L-24.26 873.06L-24.26 820.06zM67.54 873.06L113.44 899.56L113.44 952.56L67.54 979.06L21.64 952.56L21.64 899.56zM21.64 952.56L67.54 979.06L67.54 1032.06L21.64 1058.56L-24.26 1032.06L-24.26 979.06zM159.34 237.06L205.24 263.56L205.24 316.56L159.34 343.06L113.44 316.56L113.44 263.56zM159.34 555.06L205.24 581.56L205.24 634.56L159.34 661.06L113.44 634.56L113.44 581.56zM159.34 1032.06L205.24 1058.56L205.24 1111.56L159.34 1138.06L113.44 1111.56L113.44 1058.56zM113.44 1111.56L159.34 1138.06L159.34 1191.06L113.44 1217.56L67.54 1191.06L67.54 1138.06zM205.24 -1.44L251.14 25.06L251.14 78.06L205.24 104.56L159.34 78.06L159.34 25.06zM205.24 475.56L251.14 502.06L251.14 555.06L205.24 581.56L159.34 555.06L159.34 502.06zM251.14 555.06L297.04 581.56L297.04 634.56L251.14 661.06L205.24 634.56L205.24 581.56zM251.14 714.06L297.04 740.56L297.04 793.56L251.14 820.06L205.24 793.56L205.24 740.56zM205.24 1111.56L251.14 1138.06L251.14 1191.06L205.24 1217.56L159.34 1191.06L159.34 1138.06zM297.04 157.56L342.94 184.06L342.94 237.06L297.04 263.56L251.14 237.06L251.14 184.06zM342.94 396.06L388.85 422.56L388.85 475.56L342.94 502.06L297.04 475.56L297.04 422.56zM297.04 475.56L342.94 502.06L342.94 555.06L297.04 581.56L251.14 555.06L251.14 502.06zM342.94 714.06L388.85 740.56L388.85 793.56L342.94 820.06L297.04 793.56L297.04 740.56zM434.75 237.06L480.65 263.56L480.65 316.56L434.75 343.06L388.85 316.56L388.85 263.56zM434.75 873.06L480.65 899.56L480.65 952.56L434.75 979.06L388.85 952.56L388.85 899.56zM388.85 952.56L434.75 979.06L434.75 1032.06L388.85 1058.56L342.94 1032.06L342.94 979.06zM388.85 1111.56L434.75 1138.06L434.75 1191.06L388.85 1217.56L342.94 1191.06L342.94 1138.06zM526.55 714.06L572.45 740.56L572.45 793.56L526.55 820.06L480.65 793.56L480.65 740.56zM526.55 1032.06L572.45 1058.56L572.45 1111.56L526.55 1138.06L480.65 1111.56L480.65 1058.56zM618.35 555.06L664.25 581.56L664.25 634.56L618.35 661.06L572.45 634.56L572.45 581.56zM618.35 1032.06L664.25 1058.56L664.25 1111.56L618.35 1138.06L572.45 1111.56L572.45 1058.56zM710.15 237.06L756.05 263.56L756.05 316.56L710.15 343.06L664.25 316.56L664.25 263.56zM710.15 555.06L756.05 581.56L756.05 634.56L710.15 661.06L664.25 634.56L664.25 581.56zM710.15 873.06L756.05 899.56L756.05 952.56L710.15 979.06L664.25 952.56L664.25 899.56zM664.25 952.56L710.15 979.06L710.15 1032.06L664.25 1058.56L618.35 1032.06L618.35 979.06zM756.05 316.56L801.95 343.06L801.95 396.06L756.05 422.56L710.15 396.06L710.15 343.06zM801.95 396.06L847.85 422.56L847.85 475.56L801.95 502.06L756.05 475.56L756.05 422.56zM756.05 475.56L801.95 502.06L801.95 555.06L756.05 581.56L710.15 555.06L710.15 502.06zM801.95 873.06L847.85 899.56L847.85 952.56L801.95 979.06L756.05 952.56L756.05 899.56zM801.95 1032.06L847.85 1058.56L847.85 1111.56L801.95 1138.06L756.05 1111.56L756.05 1058.56zM756.05 1111.56L801.95 1138.06L801.95 1191.06L756.05 1217.56L710.15 1191.06L710.15 1138.06zM847.85 -1.44L893.75 25.06L893.75 78.06L847.85 104.56L801.95 78.06L801.95 25.06zM893.75 78.06L939.65 104.56L939.65 157.56L893.75 184.06L847.85 157.56L847.85 104.56zM847.85 157.56L893.75 184.06L893.75 237.06L847.85 263.56L801.95 237.06L801.95 184.06zM893.75 873.06L939.65 899.56L939.65 952.56L893.75 979.06L847.85 952.56L847.85 899.56zM939.65 157.56L985.55 184.06L985.55 237.06L939.65 263.56L893.75 237.06L893.75 184.06zM985.55 237.06L1031.45 263.56L1031.45 316.56L985.55 343.06L939.65 316.56L939.65 263.56zM939.65 316.56L985.55 343.06L985.55 396.06L939.65 422.56L893.75 396.06L893.75 343.06zM939.65 1111.56L985.55 1138.06L985.55 1191.06L939.65 1217.56L893.75 1191.06L893.75 1138.06zM1031.45 475.56L1077.35 502.06L1077.35 555.06L1031.45 581.56L985.55 555.06L985.55 502.06zM1031.45 634.56L1077.35 661.06L1077.35 714.06L1031.45 740.56L985.55 714.06L985.55 661.06zM1077.35 873.06L1123.26 899.56L1123.26 952.56L1077.35 979.06L1031.45 952.56L1031.45 899.56zM1031.45 1111.56L1077.35 1138.06L1077.35 1191.06L1031.45 1217.56L985.55 1191.06L985.55 1138.06zM1169.16 396.06L1215.06 422.56L1215.06 475.56L1169.16 502.06L1123.26 475.56L1123.26 422.56zM1169.16 555.06L1215.06 581.56L1215.06 634.56L1169.16 661.06L1123.26 634.56L1123.26 581.56zM1260.96 78.06L1306.86 104.56L1306.86 157.56L1260.96 184.06L1215.06 157.56L1215.06 104.56zM1215.06 634.56L1260.96 661.06L1260.96 714.06L1215.06 740.56L1169.16 714.06L1169.16 661.06zM1352.76 237.06L1398.66 263.56L1398.66 316.56L1352.76 343.06L1306.86 316.56L1306.86 263.56zM1352.76 714.06L1398.66 740.56L1398.66 793.56L1352.76 820.06L1306.86 793.56L1306.86 740.56zM1306.86 793.56L1352.76 820.06L1352.76 873.06L1306.86 899.56L1260.96 873.06L1260.96 820.06zM1398.66 -1.44L1444.56 25.06L1444.56 78.06L1398.66 104.56L1352.76 78.06L1352.76 25.06zM1398.66 157.56L1444.56 184.06L1444.56 237.06L1398.66 263.56L1352.76 237.06L1352.76 184.06zM1398.66 475.56L1444.56 502.06L1444.56 555.06L1398.66 581.56L1352.76 555.06L1352.76 502.06zM1444.56 714.06L1490.46 740.56L1490.46 793.56L1444.56 820.06L1398.66 793.56L1398.66 740.56zM1444.56 873.06L1490.46 899.56L1490.46 952.56L1444.56 979.06L1398.66 952.56L1398.66 899.56zM1444.56 1032.06L1490.46 1058.56L1490.46 1111.56L1444.56 1138.06L1398.66 1111.56L1398.66 1058.56zM1398.66 1111.56L1444.56 1138.06L1444.56 1191.06L1398.66 1217.56L1352.76 1191.06L1352.76 1138.06zM1536.36 555.06L1582.26 581.56L1582.26 634.56L1536.36 661.06L1490.46 634.56L1490.46 581.56zM1490.46 634.56L1536.36 661.06L1536.36 714.06L1490.46 740.56L1444.56 714.06L1444.56 661.06zM1490.46 793.56L1536.36 820.06L1536.36 873.06L1490.46 899.56L1444.56 873.06L1444.56 820.06zM1536.36 873.06L1582.26 899.56L1582.26 952.56L1536.36 979.06L1490.46 952.56L1490.46 899.56zM1628.16 78.06L1674.06 104.56L1674.06 157.56L1628.16 184.06L1582.26 157.56L1582.26 104.56zM1582.26 475.56L1628.16 502.06L1628.16 555.06L1582.26 581.56L1536.36 555.06L1536.36 502.06zM1582.26 634.56L1628.16 661.06L1628.16 714.06L1582.26 740.56L1536.36 714.06L1536.36 661.06zM1628.16 714.06L1674.06 740.56L1674.06 793.56L1628.16 820.06L1582.26 793.56L1582.26 740.56zM1628.16 1032.06L1674.06 1058.56L1674.06 1111.56L1628.16 1138.06L1582.26 1111.56L1582.26 1058.56zM1674.06 -1.44L1719.96 25.06L1719.96 78.06L1674.06 104.56L1628.16 78.06L1628.16 25.06zM1674.06 157.56L1719.96 184.06L1719.96 237.06L1674.06 263.56L1628.16 237.06L1628.16 184.06zM1719.96 237.06L1765.86 263.56L1765.86 316.56L1719.96 343.06L1674.06 316.56L1674.06 263.56zM1719.96 873.06L1765.86 899.56L1765.86 952.56L1719.96 979.06L1674.06 952.56L1674.06 899.56zM1674.06 1111.56L1719.96 1138.06L1719.96 1191.06L1674.06 1217.56L1628.16 1191.06L1628.16 1138.06zM1765.86 316.56L1811.77 343.06L1811.77 396.06L1765.86 422.56L1719.96 396.06L1719.96 343.06zM1765.86 952.56L1811.77 979.06L1811.77 1032.06L1765.86 1058.56L1719.96 1032.06L1719.96 979.06zM1811.77 1032.06L1857.67 1058.56L1857.67 1111.56L1811.77 1138.06L1765.86 1111.56L1765.86 1058.56zM1903.57 237.06L1949.47 263.56L1949.47 316.56L1903.57 343.06L1857.67 316.56L1857.67 263.56zM1857.67 316.56L1903.57 343.06L1903.57 396.06L1857.67 422.56L1811.77 396.06L1811.77 343.06zM1903.57 873.06L1949.47 899.56L1949.47 952.56L1903.57 979.06L1857.67 952.56L1857.67 899.56zM1857.67 1111.56L1903.57 1138.06L1903.57 1191.06L1857.67 1217.56L1811.77 1191.06L1811.77 1138.06z" stroke="rgba(17, 24, 128, 1)" stroke-width="2"></path>
    </g>
    <defs>
        <mask id="SvgjsMask1060">
            <rect width="1920" height="1080" fill="#ffffff"></rect>
        </mask>
    </defs>
</svg>